<svg xmlns="http://www.w3.org/2000/svg" version="1.1" xmlns:xlink="http://www.w3.org/1999/xlink" xmlns:svgjs="http://svgjs.dev/svgjs" width="1440" height="560" preserveAspectRatio="none" viewBox="0 0 1440 560"><g mask="url(&quot;#SvgjsMask1390&quot;)" fill="none"><rect width="1440" height="560" x="0" y="0" fill="url(&quot;#SvgjsLinearGradient1391&quot;)"></rect><path d="M1440 0L1272.9 0L1440 23.34z" fill="rgba(255, 255, 255, .1)"></path><path d="M1272.9 0L1440 23.34L1440 299.15L931.4200000000001 0z" fill="rgba(255, 255, 255, .075)"></path><path d="M931.42 0L1440 299.15L1440 347.74L462.35999999999996 0z" fill="rgba(255, 255, 255, .05)"></path><path d="M462.3599999999999 0L1440 347.74L1440 455.56L376.2899999999999 0z" fill="rgba(255, 255, 255, .025)"></path><path d="M0 560L104.28 560L0 392.45z" fill="rgba(0, 0, 0, .1)"></path><path d="M0 392.45L104.28 560L119.09 560L0 306.04999999999995z" fill="rgba(0, 0, 0, .075)"></path><path d="M0 306.04999999999995L119.09 560L711.13 560L0 295.55999999999995z" fill="rgba(0, 0, 0, .05)"></path><path d="M0 295.56L711.13 560L734.91 560L0 132.43z" fill="rgba(0, 0, 0, .025)"></path></g><defs><mask id="SvgjsMask1390"><rect width="1440" height="560" fill="#ffffff"></rect></mask><linearGradient x1="15.28%" y1="-39.29%" x2="84.72%" y2="139.29%" gradientUnits="userSpaceOnUse" id="SvgjsLinearGradient1391"><stop stop-color="#0e2a47" offset="0"></stop><stop stop-color="rgba(0, 30, 68, 1)" offset="1"></stop></linearGradient></defs></svg>